# xmcd CD database file
#
# Track frame offsets:
#	150
#	15195
#	28665
#	40804
#	53849
#	66196
#	77285
#	102778
#	116852
#	128579
#	141849
#	164258
#	177534
#	187963
#	199986
#	209510
#	220893
#	231171
#	246579
#	256431
#	269763
#	283349
#	320861
#
# Disc length: 4504 seconds
#
# Revision: 0
# Processed by: cddbd v1.5.2PL0 Copyright (c) Steve Scherf et al.
# Submitted via: CDex 1.70beta2
#
DISCID=62119617
DTITLE=AA. VV. Jazz and Beat Generation - allegato a Musica Jazz 3-2010
DYEAR=2010
DGENRE=Jazz
TTITLE0=American haikus - Jack Kerouac
TTITLE1=Perdido - Charlie Parker
TTITLE2=The seventh son - Mose Allison
TTITLE3=Sixteen tons - Mickey Katz
TTITLE4=Coffee time - Carmen McRae
TTITLE5=Like Young - Buddy Greco
TTITLE6=Four blues poems - Kenneth Patchen
TTITLE7=Who put the benzadrine in Mrs Murphy's ovaltine - Harry "the hipster" Gibson
TTITLE8=Moanin' - Bill Henderson
TTITLE9=But I was cool - Oscar Brown jr
TTITLE10=Yardbird suite - Bob Dorough
TTITLE11=Be-bop-a-lula - "Scatman" Crothers
TTITLE12=Twisted - Lambert, Hendricks and Ross
TTITLE13=Manhattan fables - Babs Gonzales
TTITLE14=The beat generation - Bob McFadden and Dor
TTITLE15=Yip roc heresy - Slim Gaillard
TTITLE16=Monologue: pretty and the wolf - Duke Ellington
TTITLE17=Married blues - Kenneth Rexroth
TTITLE18=Stop talkin', start walkin' - Eddie Jefferson
TTITLE19=A bucket of blood - Fred Katz
TTITLE20=Staccato's theme - Buddy Morrow
TTITLE21=Blues for Dracula - Philly Joe Jones
TTITLE22=Charlie Parker - Jack Kerouac and Steve Allen
EXTD=YEAR: 2010
EXTT0=
EXTT1=
EXTT2=
EXTT3=
EXTT4=
EXTT5=
EXTT6=
EXTT7=
EXTT8=
EXTT9=
EXTT10=
EXTT11=
EXTT12=
EXTT13=
EXTT14=
EXTT15=
EXTT16=
EXTT17=
EXTT18=
EXTT19=
EXTT20=
EXTT21=
EXTT22=
PLAYORDER=
